<svg width="20" height="20" viewBox="0 0 20 20" fill="none" xmlns="http://www.w3.org/2000/svg">
<path d="M5 18.4375C5 18.6229 4.94502 18.8042 4.842 18.9583C4.73899 19.1125 4.59257 19.2327 4.42127 19.3036C4.24996 19.3746 4.06146 19.3932 3.8796 19.357C3.69775 19.3208 3.5307 19.2315 3.39959 19.1004C3.26848 18.9693 3.17919 18.8023 3.14301 18.6204C3.10684 18.4385 3.12541 18.25 3.19636 18.0787C3.26732 17.9074 3.38748 17.761 3.54165 17.658C3.69582 17.555 3.87708 17.5 4.0625 17.5C4.31114 17.5 4.5496 17.5988 4.72541 17.7746C4.90123 17.9504 5 18.1889 5 18.4375ZM6.5625 15C6.37708 15 6.19582 15.055 6.04165 15.158C5.88748 15.261 5.76732 15.4074 5.69636 15.5787C5.62541 15.75 5.60684 15.9385 5.64301 16.1204C5.67919 16.3023 5.76848 16.4693 5.89959 16.6004C6.0307 16.7315 6.19775 16.8208 6.3796 16.857C6.56146 16.8932 6.74996 16.8746 6.92127 16.8036C7.09257 16.7327 7.23899 16.6125 7.342 16.4583C7.44502 16.3042 7.5 16.1229 7.5 15.9375C7.5 15.6889 7.40123 15.4504 7.22541 15.2746C7.0496 15.0988 6.81114 15 6.5625 15ZM1.5625 15C1.37708 15 1.19582 15.055 1.04165 15.158C0.887482 15.261 0.767321 15.4074 0.696363 15.5787C0.625406 15.75 0.606841 15.9385 0.643014 16.1204C0.679188 16.3023 0.768476 16.4693 0.899588 16.6004C1.0307 16.7315 1.19775 16.8208 1.3796 16.857C1.56146 16.8932 1.74996 16.8746 1.92127 16.8036C2.09257 16.7327 2.23899 16.6125 2.342 16.4583C2.44502 16.3042 2.5 16.1229 2.5 15.9375C2.5 15.6889 2.40123 15.4504 2.22541 15.2746C2.0496 15.0988 1.81114 15 1.5625 15ZM4.0625 12.5C3.87708 12.5 3.69582 12.555 3.54165 12.658C3.38748 12.761 3.26732 12.9074 3.19636 13.0787C3.12541 13.25 3.10684 13.4385 3.14301 13.6204C3.17919 13.8023 3.26848 13.9693 3.39959 14.1004C3.5307 14.2315 3.69775 14.3208 3.8796 14.357C4.06146 14.3932 4.24996 14.3746 4.42127 14.3036C4.59257 14.2327 4.73899 14.1125 4.842 13.9583C4.94502 13.8042 5 13.6229 5 13.4375C5 13.1889 4.90123 12.9504 4.72541 12.7746C4.5496 12.5988 4.31114 12.5 4.0625 12.5ZM20 3.125C20 3.29076 19.9342 3.44973 19.8169 3.56694C19.6997 3.68415 19.5408 3.75 19.375 3.75H17.1336L14.9578 5.92656L13.2656 15.832C13.2275 16.0583 13.1279 16.2698 12.9776 16.4432C12.8273 16.6166 12.6322 16.7453 12.4136 16.8152C12.195 16.8851 11.9614 16.8934 11.7384 16.8394C11.5153 16.7853 11.3115 16.6708 11.1492 16.5086L3.49297 8.85234C3.33047 8.68992 3.21588 8.48585 3.16179 8.26255C3.1077 8.03925 3.1162 7.80536 3.18636 7.58658C3.25652 7.3678 3.38561 7.17258 3.55947 7.02238C3.73333 6.87218 3.94522 6.7728 4.17188 6.73516L14.0734 5.04219L16.4328 2.68281C16.4909 2.62479 16.5598 2.57878 16.6357 2.54741C16.7116 2.51605 16.7929 2.49994 16.875 2.5H19.375C19.5408 2.5 19.6997 2.56585 19.8169 2.68306C19.9342 2.80027 20 2.95924 20 3.125ZM13.6102 6.38984L4.375 7.96875L12.0312 15.625L13.6102 6.38984Z" fill="#101828"/>
</svg>
