<svg width="15" height="14" viewBox="0 0 15 14" fill="none" xmlns="http://www.w3.org/2000/svg">
<path d="M6.64768 0.266696C6.83528 -0.0888769 7.34453 -0.088876 7.53213 0.266697L9.42037 3.84557C9.49271 3.9827 9.62458 4.0785 9.77734 4.10493L13.7646 4.79482C14.1607 4.86336 14.3181 5.34768 14.0379 5.63598L11.2176 8.53774C11.1096 8.64891 11.0592 8.80393 11.0813 8.95739L11.6573 12.9626C11.7145 13.3606 11.3025 13.6599 10.9418 13.4825L7.31053 11.697C7.1714 11.6286 7.00841 11.6286 6.86928 11.697L3.23805 13.4825C2.87728 13.6599 2.46529 13.3606 2.52252 12.9626L3.09851 8.95739C3.12058 8.80393 3.07022 8.64891 2.96216 8.53773L0.141944 5.63598C-0.138254 5.34768 0.0191108 4.86336 0.415254 4.79482L4.40247 4.10493C4.55523 4.0785 4.6871 3.9827 4.75944 3.84557L6.64768 0.266696Z" fill="#FFC531"/>
</svg>
