<svg width="20" height="20" viewBox="0 0 20 20" fill="none" xmlns="http://www.w3.org/2000/svg">
<path d="M0 5C0 5 0 2.5 2.5 2.5H17.5C17.5 2.5 20 2.5 20 5V12.5C20 12.5 20 15 17.5 15H12.5C12.5 15.8333 12.6042 16.4583 12.8125 16.875H13.75C13.9158 16.875 14.0747 16.9408 14.1919 17.0581C14.3092 17.1753 14.375 17.3342 14.375 17.5C14.375 17.6658 14.3092 17.8247 14.1919 17.9419C14.0747 18.0592 13.9158 18.125 13.75 18.125H6.25C6.08424 18.125 5.92527 18.0592 5.80806 17.9419C5.69085 17.8247 5.625 17.6658 5.625 17.5C5.625 17.3342 5.69085 17.1753 5.80806 17.0581C5.92527 16.9408 6.08424 16.875 6.25 16.875H7.1875C7.39583 16.4583 7.5 15.8333 7.5 15H2.5C2.5 15 0 15 0 12.5V5ZM1.7475 3.93125C1.61027 4.02693 1.50075 4.15716 1.43 4.30875C1.3247 4.52936 1.26355 4.76843 1.25 5.0125V12.5C1.25 12.9062 1.3475 13.1275 1.43125 13.2525C1.51875 13.3825 1.64458 13.4883 1.80875 13.57C2.0198 13.671 2.24789 13.7316 2.48125 13.7487L2.5125 13.75H17.5C17.9062 13.75 18.1275 13.6525 18.2525 13.5687C18.3897 13.4731 18.4993 13.3428 18.57 13.1913C18.671 12.9802 18.7316 12.7521 18.7487 12.5188L18.75 12.4875V5C18.75 4.59375 18.6525 4.3725 18.5687 4.2475C18.4731 4.11027 18.3428 4.00075 18.1913 3.93C17.9706 3.8247 17.7316 3.76355 17.4875 3.75H2.5C2.09375 3.75 1.8725 3.8475 1.7475 3.93125Z" fill="#101828"/>
</svg>
